<!-- Generated by IcoMoon.io -->
<svg version="1.1" xmlns="http://www.w3.org/2000/svg" width="896" height="1024" viewBox="0 0 896 1024">
<title></title>
<g id="icomoon-ignore">
</g>
<path fill="#5474fd" d="M192 448c-22.56 0-43.9 4.6-64 11.8v-11.8c0-70.6 57.4-128 128-128 35.34 0 64-28.66 64-64s-28.6-64-64-64c-141.16 0-256 114.8-256 256v192c0 106.040 85.96 192 192 192s192-85.96 192-192-86-192-192-192zM704 448c-22.56 0-43.9 4.61-64 11.758v-11.758c0-70.6 57.4-128 128-128 35.34 0 64-28.66 64-64s-28.66-64-64-64c-141.16 0-256 114.84-256 256v192c0 106.040 85.96 192 192 192s192-85.96 192-192-86-192-192-192z"></path>
</svg>
